<svg width="40" height="40" viewBox="0 0 40 40" fill="none" xmlns="http://www.w3.org/2000/svg">
<path d="M15.8334 22.917C15.8334 24.5337 17.0834 25.8337 18.6167 25.8337H21.75C23.0834 25.8337 24.1667 24.7004 24.1667 23.2837C24.1667 21.767 23.5001 21.2171 22.5167 20.8671L17.5 19.1171C16.5167 18.7671 15.8501 18.2337 15.8501 16.7004C15.8501 15.3004 16.9334 14.1504 18.2667 14.1504H21.4C22.9334 14.1504 24.1834 15.4504 24.1834 17.0671" stroke="#4E4E4E" stroke-width="2.5" stroke-linecap="round" stroke-linejoin="round"/>
<path d="M20 12.5V27.5" stroke="#4E4E4E" stroke-width="2.5" stroke-linecap="round" stroke-linejoin="round"/>
<path d="M36.6667 20.0002C36.6667 29.2002 29.2 36.6668 20 36.6668C10.8 36.6668 3.33337 29.2002 3.33337 20.0002C3.33337 10.8002 10.8 3.3335 20 3.3335" stroke="#4E4E4E" stroke-width="2.5" stroke-linecap="round" stroke-linejoin="round"/>
<path d="M28.3334 5V11.6667H35" stroke="#4E4E4E" stroke-width="2.5" stroke-linecap="round" stroke-linejoin="round"/>
<path d="M36.6667 3.3335L28.3334 11.6668" stroke="#4E4E4E" stroke-width="2.5" stroke-linecap="round" stroke-linejoin="round"/>
</svg>
