<svg width="41" height="40" viewBox="0 0 41 40" fill="none" xmlns="http://www.w3.org/2000/svg">
<path d="M16.5001 22.917C16.5001 24.5337 17.7501 25.8337 19.2835 25.8337H22.4168C23.7501 25.8337 24.8335 24.7004 24.8335 23.2837C24.8335 21.767 24.1668 21.2171 23.1835 20.8671L18.1668 19.1171C17.1835 18.7671 16.5168 18.2337 16.5168 16.7004C16.5168 15.3004 17.6001 14.1504 18.9334 14.1504H22.0668C23.6001 14.1504 24.8501 15.4504 24.8501 17.0671" stroke="#4E4E4E" stroke-width="2.5" stroke-linecap="round" stroke-linejoin="round"/>
<path d="M20.6667 12.5V27.5" stroke="#4E4E4E" stroke-width="2.5" stroke-linecap="round" stroke-linejoin="round"/>
<path d="M37.3335 20.0002C37.3335 29.2002 29.8668 36.6668 20.6668 36.6668C11.4668 36.6668 4.00012 29.2002 4.00012 20.0002C4.00012 10.8002 11.4668 3.3335 20.6668 3.3335" stroke="#4E4E4E" stroke-width="2.5" stroke-linecap="round" stroke-linejoin="round"/>
<path d="M37.3334 10.0002V3.3335H30.6667" stroke="#4E4E4E" stroke-width="2.5" stroke-linecap="round" stroke-linejoin="round"/>
<path d="M29.0001 11.6668L37.3335 3.3335" stroke="#4E4E4E" stroke-width="2.5" stroke-linecap="round" stroke-linejoin="round"/>
</svg>
