<svg width="41" height="40" viewBox="0 0 41 40" fill="none" xmlns="http://www.w3.org/2000/svg">
<path d="M15.3333 36.6668H25.3333C33.6666 36.6668 37 33.3335 37 25.0002V15.0002C37 6.66683 33.6666 3.3335 25.3333 3.3335H15.3333C6.99996 3.3335 3.66663 6.66683 3.66663 15.0002V25.0002C3.66663 33.3335 6.99996 36.6668 15.3333 36.6668Z" stroke="#4E4E4E" stroke-width="2.5" stroke-linecap="round" stroke-linejoin="round"/>
<path d="M13.6666 31.6668H27C30.3333 31.6668 32 30.0002 32 26.6668V13.3335C32 10.0002 30.3333 8.3335 27 8.3335H13.6666C10.3333 8.3335 8.66663 10.0002 8.66663 13.3335V26.6668C8.66663 30.0002 10.3333 31.6668 13.6666 31.6668Z" stroke="#4E4E4E" stroke-width="2.5" stroke-linecap="round" stroke-linejoin="round"/>
<path d="M8.66663 15.8335H12.8C15.1 15.8335 16.9666 17.7002 16.9666 20.0002C16.9666 22.3002 15.1 24.1668 12.8 24.1668H8.66663" stroke="#4E4E4E" stroke-width="2.5" stroke-linecap="round" stroke-linejoin="round"/>
<path d="M31.9999 16.6504H26.9999" stroke="#4E4E4E" stroke-width="2.5" stroke-linecap="round" stroke-linejoin="round"/>
<path d="M31.9999 23.3335H26.9999" stroke="#4E4E4E" stroke-width="2.5" stroke-linecap="round" stroke-linejoin="round"/>
<path d="M12.3336 20H12.5003" stroke="#0E0E0F" stroke-width="3.33333" stroke-miterlimit="10" stroke-linecap="round" stroke-linejoin="round"/>
</svg>
