<svg width="33" height="33" viewBox="0 0 33 33" fill="none" xmlns="http://www.w3.org/2000/svg">
<path fill-rule="evenodd" clip-rule="evenodd" d="M3.57579 22.0484L5.56895 24.0416C6.90364 23.1573 8.71961 23.3032 9.89555 24.4791C11.0715 25.6551 11.2173 27.471 10.3331 28.8057L12.3262 30.7989C12.8632 31.3359 13.7338 31.3359 14.2708 30.7989L19.1321 25.9375L17.1876 23.993C16.6506 23.456 16.6506 22.5854 17.1876 22.0484C17.7246 21.5115 18.5952 21.5115 19.1321 22.0484L21.0767 23.993L30.7994 14.2703C31.3364 13.7333 31.3364 12.8627 30.7994 12.3257L28.8062 10.3326C27.4715 11.2168 25.6556 11.071 24.4796 9.89505C23.3037 8.7191 23.1579 6.90314 24.0421 5.56845L22.049 3.57528C21.512 3.03831 20.6414 3.03831 20.1044 3.57528L10.3817 13.298L12.3262 15.2425C12.8632 15.7795 12.8632 16.6501 12.3262 17.1871C11.7893 17.7241 10.9187 17.7241 10.3817 17.1871L8.43715 15.2425L3.57579 20.1039C3.03882 20.6409 3.03882 21.5115 3.57579 22.0484ZM13.2985 20.1039C12.7615 19.5669 12.7615 18.6963 13.2985 18.1594C13.8355 17.6224 14.7061 17.6224 15.243 18.1594L16.2153 19.1316C16.7523 19.6686 16.7523 20.5392 16.2153 21.0762C15.6783 21.6131 14.8077 21.6131 14.2708 21.0762L13.2985 20.1039Z" fill="#C8C7CC"/>
</svg>
