<svg width="16" height="16" viewBox="0 0 16 16" fill="none" xmlns="http://www.w3.org/2000/svg">
<path d="M13.625 6.46855C14.1574 6.46855 14.5938 6.0322 14.5938 5.4998C14.5938 4.96741 14.1574 4.53105 13.625 4.53105H13.3934L13.2397 3.79906C13.2397 3.79875 13.2396 3.79844 13.2396 3.79814C13.122 3.22698 12.9249 2.58451 12.4441 2.09081C11.9466 1.57986 11.2187 1.2998 10.1938 1.2998H5.80625C4.78134 1.2998 4.05344 1.57986 3.55586 2.09081C3.07509 2.58449 2.87803 3.22691 2.76046 3.79805L2.60657 4.53105H2.375C1.84261 4.53105 1.40625 4.96741 1.40625 5.4998C1.40625 6.0322 1.84261 6.46855 2.375 6.46855H13.625Z" stroke="white"/>
<path d="M1.13983 8.98924L1.13982 8.98924L1.13959 8.99172L0.7896 12.7979C0.789598 12.7979 0.789595 12.7979 0.789593 12.798C0.733112 13.4114 0.934837 14.0258 1.35561 14.487L1.35589 14.4873C1.78296 14.9547 2.3862 15.2188 3.02499 15.2188H4.19999C4.80993 15.2188 5.25042 15.0393 5.55414 14.7319C5.82945 14.4532 5.93991 14.1153 6.00092 13.9286C6.00265 13.9234 6.00433 13.9182 6.00597 13.9132C6.0061 13.9128 6.00623 13.9124 6.00636 13.912L6.13058 13.5394C6.16119 13.4475 6.18026 13.3918 6.19608 13.3526C6.23714 13.3476 6.30092 13.3438 6.39999 13.3438H9.59999C9.6945 13.3438 9.7581 13.3458 9.80202 13.3492C9.81849 13.3914 9.83886 13.4501 9.87004 13.5413L9.99363 13.912C9.99375 13.9124 9.99388 13.9128 9.994 13.9132C9.99565 13.9182 9.99734 13.9234 9.99906 13.9286C10.0601 14.1153 10.1705 14.4532 10.4458 14.7319C10.7496 15.0393 11.1901 15.2188 11.8 15.2188H12.975C13.6066 15.2188 14.2164 14.9553 14.6441 14.4873L14.6444 14.487C15.0652 14.0257 15.2669 13.4114 15.2104 12.7979L14.8604 8.99223C14.8129 8.46932 14.7141 7.79891 14.2788 7.26809C13.8207 6.70948 13.0815 6.40625 11.9875 6.40625H4.01249C2.91832 6.40625 2.1805 6.70958 1.72317 7.26854C1.28934 7.79878 1.19029 8.46889 1.13983 8.98924Z" stroke="white"/>
</svg>
