<svg width="57" height="38" viewBox="0 0 57 38" fill="none" xmlns="http://www.w3.org/2000/svg">
<g filter="url(#filter0_d_160_2004)">
<path fill-rule="evenodd" clip-rule="evenodd" d="M52.4983 19.2366L52.5488 15.8125L52.5418 15.8124L52.5463 15.5138C52.6754 13.6553 51.819 8.794 51.819 8.794C51.2131 6.87434 49.1465 5.9641 47.4383 5.53501C47.0281 4.95732 46.3502 4.56854 45.5741 4.55025L40.9795 4.44256C40.3628 4.42798 39.7974 4.65196 39.3785 5.02607L38.7067 5.01021L36.6646 4.96196L35.9296 2.70999L35.2335 2.69336L35.4765 4.93409L23.2712 4.64654C22.863 4.25306 22.3069 4.00201 21.6884 3.98714L10.4616 3.72263C9.77337 3.70639 9.15137 3.9866 8.72104 4.44011C7.35838 4.6435 5.27009 5.21628 5.10797 6.82978L4.96433 16.5963L4.82094 26.3618C4.9354 27.9819 7.00568 28.6517 8.36103 28.9197C8.77803 29.3939 9.39095 29.7032 10.0795 29.7195L21.306 29.984C21.9247 29.9985 22.4881 29.7742 22.907 29.4001L35.1929 29.6893L34.9101 31.7324L35.606 31.749L36.3391 29.7164L38.3425 29.7635L39.0256 29.7933C39.435 30.18 39.9842 30.4254 40.5974 30.4398L45.192 30.5474C45.8172 30.562 46.3895 30.3325 46.8102 29.9502C48.5732 29.6332 50.8581 28.8399 51.5538 26.8483C51.5538 26.8483 52.5521 22.0312 52.4778 20.1681L52.4916 19.2365L52.4983 19.2366Z" fill="black"/>
</g>
<rect x="6.12109" y="12.0518" width="3.1" height="9.07912" rx="1" fill="#242E42"/>
<rect x="6.12109" y="6.60449" width="3.1" height="7.2633" rx="1" fill="#F52D56"/>
<rect x="51.0713" y="13.8682" width="1.55" height="9.07912" rx="0.775" fill="#242E42"/>
<rect x="6.12109" y="19.3164" width="3.1" height="7.2633" rx="1" fill="#F52D56"/>
<path fill-rule="evenodd" clip-rule="evenodd" d="M40.7066 18.5084L40.6941 18.5077C40.4553 22.0924 39.9386 24.4013 39.3385 25.8818C38.6769 27.513 37.9156 28.1392 37.3198 28.3568C37.311 28.3603 37.3023 28.3617 37.2944 28.3649C37.1814 28.4047 37.0758 28.4301 36.976 28.4438C36.5649 28.5044 36.2919 28.3839 36.2919 28.3839L29.3711 24.9552C30.3653 24.2153 30.8952 19.0807 31.0632 17.1399C31.0687 15.1878 30.9968 10.0169 30.0748 9.15413L37.2604 6.63507C37.2604 6.63507 37.5428 6.54985 37.946 6.66395C38.042 6.68966 38.142 6.72804 38.2491 6.77946C38.2585 6.78369 38.2699 6.78862 38.2801 6.79355C38.853 7.08796 39.5544 7.80885 40.0685 9.51616C40.5325 11.0661 40.8412 13.4273 40.7602 17.0212L40.7728 17.0219C40.7622 17.2751 40.7505 17.522 40.7388 17.765C40.7289 18.0076 40.7189 18.2549 40.7066 18.5084Z" fill="#242E42"/>
<path fill-rule="evenodd" clip-rule="evenodd" d="M19.6006 9.05919L19.1465 19.2552L18.8717 25.4195L18.8548 25.8059C17.4248 27.8055 14.1913 27.6998 12.0586 27.3677L12.9882 6.49506C15.1382 6.43941 18.3629 6.75038 19.6068 8.92185L19.6006 9.05919Z" fill="#242E42"/>
<path fill-rule="evenodd" clip-rule="evenodd" d="M18.8158 4.78906C20.6029 4.78906 34.0217 4.78906 34.0217 4.78906C34.0217 4.78906 27.4636 8.42071 25.6845 8.42071C23.9055 8.42071 17.0286 4.78906 18.8158 4.78906Z" fill="#242E42"/>
<path fill-rule="evenodd" clip-rule="evenodd" d="M18.823 30.2108C20.6101 30.2108 34.0289 30.2108 34.0289 30.2108C34.0289 30.2108 27.2475 26.5791 25.4685 26.5791C23.6894 26.5791 17.0358 30.2108 18.823 30.2108Z" fill="#242E42"/>
<defs>
<filter id="filter0_d_160_2004" x="0.820801" y="0.693359" width="55.7388" height="37.0557" filterUnits="userSpaceOnUse" color-interpolation-filters="sRGB">
<feFlood flood-opacity="0" result="BackgroundImageFix"/>
<feColorMatrix in="SourceAlpha" type="matrix" values="0 0 0 0 0 0 0 0 0 0 0 0 0 0 0 0 0 0 127 0" result="hardAlpha"/>
<feOffset dy="2"/>
<feGaussianBlur stdDeviation="2"/>
<feColorMatrix type="matrix" values="0 0 0 0 0 0 0 0 0 0 0 0 0 0 0 0 0 0 0.2 0"/>
<feBlend mode="normal" in2="BackgroundImageFix" result="effect1_dropShadow_160_2004"/>
<feBlend mode="normal" in="SourceGraphic" in2="effect1_dropShadow_160_2004" result="shape"/>
</filter>
</defs>
</svg>
