<svg width="26" height="26" viewBox="0 0 26 26" fill="none" xmlns="http://www.w3.org/2000/svg">
<path d="M25.424 9.92995C25.2394 9.33833 24.7497 8.90688 24.1615 8.81699L17.419 7.79391L14.4029 1.41194C14.1386 0.85301 13.5957 0.5 12.9997 0.5C12.4037 0.5 11.8608 0.85301 11.5964 1.41194L8.5819 7.79391L1.83944 8.81699C1.24967 8.90688 0.760026 9.33833 0.576994 9.92995C0.392398 10.5216 0.545706 11.1704 0.972781 11.6051L5.85206 16.5734L4.70068 23.5895C4.60056 24.2024 4.84148 24.8218 5.32331 25.1878C5.59394 25.3954 5.9162 25.5 6.24159 25.5C6.49033 25.5 6.74063 25.4379 6.96903 25.3121L12.9997 21.9993L19.0304 25.3121C19.2588 25.4379 19.5091 25.5 19.7578 25.5C20.0816 25.5 20.4054 25.3954 20.6776 25.1878C21.1595 24.8218 21.4004 24.2024 21.3003 23.5895L20.1489 16.5734L25.0282 11.6051C25.4537 11.172 25.607 10.5216 25.424 9.92995Z" fill="#FFCC00"/>
</svg>
